<?xml version="1.0" encoding="utf-8"?>
<!-- Generator: Adobe Illustrator 13.0.2, SVG Export Plug-In  -->
<!DOCTYPE svg PUBLIC "-//W3C//DTD SVG 1.0//EN" "http://www.w3.org/TR/2001/REC-SVG-20010904/DTD/svg10.dtd" [
	<!ENTITY ns_flows "http://ns.adobe.com/Flows/1.0/">
]>
<svg version="1.0"
	 xmlns="http://www.w3.org/2000/svg" xmlns:xlink="http://www.w3.org/1999/xlink" xmlns:a="http://ns.adobe.com/AdobeSVGViewerExtensions/3.0/"
	 x="0px" y="0px" width="598px" height="142px" viewBox="-19.336 -15.666 598 142" enable-background="new -19.336 -15.666 598 142"
	 xml:space="preserve">
<defs>
</defs>
<rect x="5.664" y="13" fill="none" stroke="#000000" stroke-width="3" width="544" height="54"/>
<line fill="#FFFFFF" stroke="#000000" stroke-width="3" x1="5.664" y1="0" x2="5.664" y2="80.001"/>
<line fill="#FFFFFF" stroke="#000000" stroke-width="3" x1="60.064" y1="0" x2="60.064" y2="80.001"/>
<line fill="#FFFFFF" stroke="#000000" stroke-width="3" x1="114.464" y1="0" x2="114.464" y2="80.001"/>
<line fill="#FFFFFF" stroke="#000000" stroke-width="3" x1="168.864" y1="0" x2="168.864" y2="80.001"/>
<line fill="#FFFFFF" stroke="#000000" stroke-width="3" x1="223.264" y1="0" x2="223.264" y2="80.001"/>
<line fill="#FFFFFF" stroke="#000000" stroke-width="3" x1="277.664" y1="0" x2="277.664" y2="80.001"/>
<line fill="#FFFFFF" stroke="#000000" stroke-width="3" x1="332.064" y1="0" x2="332.064" y2="80.001"/>
<line fill="#FFFFFF" stroke="#000000" stroke-width="3" x1="386.465" y1="0" x2="386.465" y2="80.001"/>
<line fill="#FFFFFF" stroke="#000000" stroke-width="3" x1="440.864" y1="0" x2="440.864" y2="80.001"/>
<line fill="#FFFFFF" stroke="#000000" stroke-width="3" x1="495.264" y1="0" x2="495.264" y2="80.001"/>
<line fill="#FFFFFF" stroke="#000000" stroke-width="3" x1="549.664" y1="0" x2="549.664" y2="80.001"/>
<path d="M8.255,110H5.248V94.033H0v-2.24c3.647-0.256,5.151-0.607,6.047-4.287h2.208V110z"/>
<path d="M52.576,95.569c0-7.328,5.344-8.063,7.775-8.063c3.904,0,7.04,2.527,7.04,6.72c0,4.031-2.656,5.728-6.016,7.519l-2.335,1.28
	c-3.072,1.696-3.744,3.456-3.872,4.319h12.223V110H52c0.16-4.672,2.272-7.167,5.279-8.928l2.976-1.728
	c2.4-1.376,4.127-2.304,4.127-5.248c0-1.791-1.152-4.063-4.447-4.063c-4.256,0-4.448,3.968-4.544,5.536H52.576z"/>
<path d="M112.735,97.201c0.48,0.032,0.992,0.063,1.472,0.063c2.176,0,4.288-0.863,4.288-3.68c0-1.344-0.8-3.552-4.16-3.552
	c-4,0-4.256,3.264-4.384,4.832H107.2c0-3.296,1.344-7.359,7.264-7.359c4.352,0,6.943,2.495,6.943,5.919
	c0,2.88-1.664,4.256-2.88,4.64v0.064c2.176,0.704,3.744,2.24,3.744,5.248c0,3.68-2.368,7.231-8.095,7.231
	c-1.664,0-3.072-0.416-4.16-0.992c-2.496-1.313-3.168-3.904-3.36-6.496h2.912c0.096,2.112,0.608,4.96,4.8,4.96
	c2.88,0,4.896-1.76,4.896-4.352c0-3.775-3.328-4.128-5.248-4.128c-0.416,0-0.864,0.032-1.28,0.032V97.201z"/>
<path d="M173.407,104.528V110h-2.816v-5.472h-9.823v-2.752l10.303-14.271h2.336v14.591h3.296v2.432H173.407z M163.359,102.097h7.231
	V91.89h-0.064L163.359,102.097z"/>
<path d="M219.071,96.913c0.96-0.736,2.336-1.408,4.352-1.408c3.648,0,7.392,2.56,7.392,7.199c0,2.496-1.12,7.904-8.159,7.904
	c-2.944,0-6.72-1.185-7.264-6.208h2.912c0.288,2.624,2.24,3.775,4.768,3.775c2.912,0,4.735-2.336,4.735-5.151
	c0-3.231-2.208-4.991-4.992-4.991c-1.632,0-3.104,0.768-4.16,2.144l-2.432-0.128l1.696-12.063h11.647v2.752h-9.535L219.071,96.913z"
	/>
<path d="M282.111,93.489c-0.352-1.984-1.44-3.456-3.872-3.456c-4.416,0-5.343,5.952-5.343,8.319l0.064,0.064
	c0.704-1.216,2.271-2.752,5.343-2.752c2.752,0,7.04,1.76,7.04,7.136c0,2.304-0.608,3.968-2.144,5.631
	c-1.184,1.313-2.528,2.177-5.696,2.177c-1.728,0-4.192-0.769-5.792-3.265c-1.344-2.111-1.728-4.863-1.728-7.807
	c0-4.928,1.6-12.031,8.319-12.031c2.592,0,6.271,1.407,6.56,5.983H282.111z M278.015,108.08c2.688,0,4.416-2.111,4.416-5.151
	c0-1.984-1.056-4.736-4.544-4.736c-3.104,0-4.607,2.24-4.607,4.896C273.279,105.488,274.719,108.08,278.015,108.08z"/>
<path d="M324.352,87.985h15.551v2.464c-2.24,2.336-7.615,9.504-9.248,19.551h-3.104c0.769-6.176,4.864-14.239,9.184-19.263h-12.383
	V87.985z"/>
<path d="M390.431,98.033c3.04,1.279,3.68,3.775,3.68,5.472c0,3.615-2.304,7.104-7.616,7.104c-1.248,0-3.615-0.32-5.407-1.729
	c-2.304-1.823-2.304-4.256-2.304-5.344c0-2.752,1.439-4.512,3.808-5.472c-1.919-0.735-3.04-2.271-3.04-4.383
	c0-2.336,1.44-6.176,6.816-6.176c4.991,0,6.943,3.168,6.943,5.791C393.311,96.529,391.422,97.521,390.431,98.033z M381.791,103.601
	c0,1.792,0.896,4.479,4.8,4.479c2.048,0,4.512-0.736,4.512-4.256c0-3.04-2.112-4.384-4.672-4.384
	C383.264,99.44,381.791,101.521,381.791,103.601z M390.398,93.394c0-1.376-0.896-3.36-4.191-3.36c-3.008,0-3.744,2.08-3.744,3.52
	c0,2.145,1.889,3.456,3.936,3.456C388.83,97.009,390.398,95.441,390.398,93.394z"/>
<path d="M433.311,95.217c0-4.096,2.496-7.711,7.232-7.711c7.167,0,7.871,6.783,7.871,10.431c0,2.4-0.416,12.672-8.159,12.672
	c-5.28,0-6.688-3.84-6.688-6.016h2.815c0.16,2.271,1.504,3.68,3.809,3.68c3.071,0,4.703-2.592,5.406-8.416l-0.063-0.063
	c-0.832,1.728-3.071,2.688-5.151,2.688C436.223,102.48,433.311,99.696,433.311,95.217z M445.118,94.833c0-2.56-1.312-4.8-4.544-4.8
	c-2.623,0-4.352,2.048-4.352,5.056c0,4.32,2.688,4.864,4.576,4.864C442.271,99.953,445.118,99.281,445.118,94.833z"/>
<path d="M488.959,110h-3.008V94.033h-5.248v-2.24c3.647-0.256,5.151-0.607,6.047-4.287h2.209V110z"/>
<path d="M504.158,110.608c-6.463,0-7.711-6.88-7.711-11.552s1.248-11.551,7.711-11.551c6.464,0,7.712,6.879,7.712,11.551
	S510.622,110.608,504.158,110.608z M504.158,90.033c-3.231,0-4.703,3.392-4.703,9.023s1.472,9.023,4.703,9.023
	c3.232,0,4.704-3.392,4.704-9.023S507.391,90.033,504.158,90.033z"/>
<path d="M543.358,110h-3.008V94.033h-5.247v-2.24c3.646-0.256,5.15-0.607,6.047-4.287h2.208V110z"/>
<path d="M561.15,110h-3.008V94.033h-5.248v-2.24c3.648-0.256,5.152-0.607,6.048-4.287h2.208V110z"/>
<path d="M35.456,50.144h-3.008V34.177H27.2v-2.24c3.647-0.256,5.151-0.607,6.047-4.287h2.208V50.144z"/>
<path d="M79.776,35.713c0-7.328,5.344-8.063,7.775-8.063c3.904,0,7.04,2.527,7.04,6.72c0,4.031-2.656,5.728-6.016,7.519l-2.335,1.28
	c-3.072,1.696-3.744,3.456-3.872,4.319h12.223v2.656H79.2c0.16-4.672,2.272-7.167,5.279-8.928l2.976-1.728
	c2.4-1.376,4.127-2.304,4.127-5.248c0-1.791-1.152-4.063-4.447-4.063c-4.256,0-4.448,3.968-4.544,5.536H79.776z"/>
<path d="M139.936,37.345c0.48,0.032,0.992,0.063,1.472,0.063c2.176,0,4.288-0.863,4.288-3.68c0-1.344-0.8-3.552-4.16-3.552
	c-4,0-4.256,3.264-4.384,4.832H134.4c0-3.296,1.344-7.359,7.264-7.359c4.352,0,6.943,2.495,6.943,5.919
	c0,2.88-1.664,4.256-2.88,4.64v0.064c2.176,0.704,3.744,2.24,3.744,5.248c0,3.68-2.368,7.231-8.095,7.231
	c-1.664,0-3.072-0.416-4.16-0.992c-2.496-1.313-3.168-3.904-3.36-6.496h2.912c0.096,2.112,0.608,4.96,4.8,4.96
	c2.88,0,4.896-1.76,4.896-4.352c0-3.775-3.328-4.128-5.248-4.128c-0.416,0-0.864,0.032-1.28,0.032V37.345z"/>
<path d="M200.607,44.672v5.472h-2.816v-5.472h-9.823V41.92l10.303-14.271h2.336v14.591h3.296v2.432H200.607z M190.56,42.241h7.231
	V32.034h-0.064L190.56,42.241z"/>
<path d="M246.271,37.057c0.96-0.736,2.336-1.408,4.352-1.408c3.648,0,7.392,2.56,7.392,7.199c0,2.496-1.12,7.904-8.159,7.904
	c-2.944,0-6.72-1.185-7.264-6.208h2.912c0.288,2.624,2.24,3.775,4.768,3.775c2.912,0,4.735-2.336,4.735-5.151
	c0-3.231-2.208-4.991-4.992-4.991c-1.632,0-3.104,0.768-4.16,2.144l-2.432-0.128l1.696-12.063h11.647v2.752h-9.535L246.271,37.057z"
	/>
<path d="M309.311,33.633c-0.352-1.984-1.439-3.456-3.872-3.456c-4.415,0-5.343,5.952-5.343,8.319l0.063,0.064
	c0.704-1.216,2.271-2.752,5.344-2.752c2.752,0,7.039,1.76,7.039,7.136c0,2.304-0.607,3.968-2.144,5.631
	c-1.184,1.313-2.527,2.177-5.695,2.177c-1.729,0-4.192-0.769-5.792-3.265c-1.344-2.111-1.728-4.863-1.728-7.807
	c0-4.928,1.6-12.031,8.319-12.031c2.592,0,6.271,1.407,6.56,5.983H309.311z M305.215,48.224c2.688,0,4.416-2.111,4.416-5.151
	c0-1.984-1.057-4.736-4.544-4.736c-3.104,0-4.607,2.24-4.607,4.896C300.479,45.632,301.919,48.224,305.215,48.224z"/>
<path d="M351.552,28.129h15.551v2.464c-2.24,2.336-7.616,9.504-9.248,19.551h-3.104c0.769-6.176,4.864-14.239,9.184-19.263h-12.383
	V28.129z"/>
<path d="M417.631,38.177c3.039,1.279,3.68,3.775,3.68,5.472c0,3.615-2.305,7.104-7.616,7.104c-1.248,0-3.615-0.32-5.407-1.729
	c-2.304-1.823-2.304-4.256-2.304-5.344c0-2.752,1.439-4.512,3.808-5.472c-1.92-0.735-3.04-2.271-3.04-4.383
	c0-2.336,1.44-6.176,6.815-6.176c4.992,0,6.943,3.168,6.943,5.791C420.51,36.673,418.622,37.665,417.631,38.177z M408.991,43.745
	c0,1.792,0.896,4.479,4.8,4.479c2.048,0,4.512-0.736,4.512-4.256c0-3.04-2.112-4.384-4.672-4.384
	C410.463,39.584,408.991,41.665,408.991,43.745z M417.599,33.538c0-1.376-0.896-3.36-4.192-3.36c-3.008,0-3.743,2.08-3.743,3.52
	c0,2.145,1.888,3.456,3.936,3.456C416.03,37.153,417.599,35.585,417.599,33.538z"/>
<path d="M460.511,35.361c0-4.096,2.496-7.711,7.231-7.711c7.168,0,7.872,6.783,7.872,10.431c0,2.4-0.416,12.672-8.159,12.672
	c-5.28,0-6.688-3.84-6.688-6.016h2.815c0.16,2.271,1.504,3.68,3.808,3.68c3.072,0,4.704-2.592,5.407-8.416l-0.063-0.063
	c-0.832,1.728-3.072,2.688-5.151,2.688C463.423,42.625,460.511,39.84,460.511,35.361z M472.318,34.977c0-2.56-1.312-4.8-4.544-4.8
	c-2.624,0-4.352,2.048-4.352,5.056c0,4.32,2.688,4.864,4.576,4.864C469.471,40.097,472.318,39.425,472.318,34.977z"/>
<path d="M516.158,50.144h-3.008V34.177h-5.247v-2.24c3.647-0.256,5.151-0.607,6.047-4.287h2.208V50.144z"/>
<path d="M531.358,50.752c-6.464,0-7.711-6.88-7.711-11.552s1.247-11.551,7.711-11.551s7.712,6.879,7.712,11.551
	S537.822,50.752,531.358,50.752z M531.358,30.177c-3.231,0-4.703,3.392-4.703,9.023s1.472,9.023,4.703,9.023
	s4.704-3.392,4.704-9.023S534.59,30.177,531.358,30.177z"/>
</svg>
